<mxfile host="app.diagrams.net" modified="2022-09-25T18:49:45.742Z" agent="5.0 (Windows NT 10.0; Win64; x64) AppleWebKit/537.36 (KHTML, like Gecko) Chrome/105.0.0.0 Safari/537.36" etag="1dD9OhFGhLwVemXmITdh" version="20.3.6" type="github">
  <diagram id="c_tUVglb4QlU3tGimCE_" name="페이지-1">
    <mxGraphModel dx="1203" dy="725" grid="1" gridSize="10" guides="1" tooltips="1" connect="1" arrows="1" fold="1" page="1" pageScale="1" pageWidth="827" pageHeight="1169" math="0" shadow="0">
      <root>
        <mxCell id="0" />
        <mxCell id="1" parent="0" />
        <mxCell id="4lpDPO-DE4PUYxhVvUUK-22" style="edgeStyle=orthogonalEdgeStyle;rounded=0;orthogonalLoop=1;jettySize=auto;html=1;exitX=0.75;exitY=0;exitDx=0;exitDy=0;entryX=0.5;entryY=1;entryDx=0;entryDy=0;endArrow=none;endFill=0;" parent="1" source="4lpDPO-DE4PUYxhVvUUK-15" target="4lpDPO-DE4PUYxhVvUUK-21" edge="1">
          <mxGeometry relative="1" as="geometry">
            <Array as="points">
              <mxPoint x="219" y="470" />
            </Array>
          </mxGeometry>
        </mxCell>
        <mxCell id="4lpDPO-DE4PUYxhVvUUK-24" style="edgeStyle=orthogonalEdgeStyle;rounded=0;orthogonalLoop=1;jettySize=auto;html=1;exitX=0.25;exitY=0;exitDx=0;exitDy=0;entryX=0.5;entryY=1;entryDx=0;entryDy=0;endArrow=none;endFill=0;" parent="1" source="4lpDPO-DE4PUYxhVvUUK-15" target="4lpDPO-DE4PUYxhVvUUK-23" edge="1">
          <mxGeometry relative="1" as="geometry">
            <Array as="points">
              <mxPoint x="167" y="440" />
              <mxPoint x="122" y="440" />
            </Array>
          </mxGeometry>
        </mxCell>
        <mxCell id="4lpDPO-DE4PUYxhVvUUK-65" style="edgeStyle=orthogonalEdgeStyle;rounded=0;orthogonalLoop=1;jettySize=auto;html=1;exitX=0;exitY=0.5;exitDx=0;exitDy=0;endArrow=none;endFill=0;entryX=0.5;entryY=1;entryDx=0;entryDy=0;" parent="1" source="4lpDPO-DE4PUYxhVvUUK-15" target="4lpDPO-DE4PUYxhVvUUK-58" edge="1">
          <mxGeometry relative="1" as="geometry">
            <mxPoint x="59" y="476" as="targetPoint" />
            <Array as="points">
              <mxPoint x="59" y="476" />
            </Array>
          </mxGeometry>
        </mxCell>
        <mxCell id="4lpDPO-DE4PUYxhVvUUK-15" value="Customer" style="whiteSpace=wrap;html=1;align=center;" parent="1" vertex="1">
          <mxGeometry x="142" y="470" width="100" height="40" as="geometry" />
        </mxCell>
        <mxCell id="4lpDPO-DE4PUYxhVvUUK-79" style="edgeStyle=orthogonalEdgeStyle;rounded=0;orthogonalLoop=1;jettySize=auto;html=1;exitX=0.5;exitY=1;exitDx=0;exitDy=0;entryX=0.5;entryY=0;entryDx=0;entryDy=0;endArrow=none;endFill=0;" parent="1" source="4lpDPO-DE4PUYxhVvUUK-15" target="9BI1GUhbHRY5c_mxrUdc-31" edge="1">
          <mxGeometry relative="1" as="geometry">
            <mxPoint x="629" y="503" as="sourcePoint" />
            <mxPoint x="192" y="571" as="targetPoint" />
          </mxGeometry>
        </mxCell>
        <mxCell id="9BI1GUhbHRY5c_mxrUdc-15" value="1" style="edgeLabel;html=1;align=center;verticalAlign=middle;resizable=0;points=[];" vertex="1" connectable="0" parent="4lpDPO-DE4PUYxhVvUUK-79">
          <mxGeometry x="0.4918" y="-2" relative="1" as="geometry">
            <mxPoint as="offset" />
          </mxGeometry>
        </mxCell>
        <mxCell id="4lpDPO-DE4PUYxhVvUUK-21" value="unique &lt;br&gt;employee id" style="ellipse;whiteSpace=wrap;html=1;align=center;fontStyle=4;" parent="1" vertex="1">
          <mxGeometry x="169" y="290" width="100" height="40" as="geometry" />
        </mxCell>
        <mxCell id="4lpDPO-DE4PUYxhVvUUK-23" value="first name" style="ellipse;whiteSpace=wrap;html=1;align=center;" parent="1" vertex="1">
          <mxGeometry x="72" y="383" width="100" height="40" as="geometry" />
        </mxCell>
        <mxCell id="4lpDPO-DE4PUYxhVvUUK-38" value="unique &lt;br&gt;part id" style="ellipse;whiteSpace=wrap;html=1;align=center;fontStyle=4;" parent="1" vertex="1">
          <mxGeometry x="430" y="820" width="100" height="40" as="geometry" />
        </mxCell>
        <mxCell id="4lpDPO-DE4PUYxhVvUUK-39" value="part name" style="ellipse;whiteSpace=wrap;html=1;align=center;" parent="1" vertex="1">
          <mxGeometry x="540" y="820" width="100" height="40" as="geometry" />
        </mxCell>
        <mxCell id="4lpDPO-DE4PUYxhVvUUK-40" value="price" style="ellipse;whiteSpace=wrap;html=1;align=center;" parent="1" vertex="1">
          <mxGeometry x="640" y="790" width="100" height="40" as="geometry" />
        </mxCell>
        <mxCell id="4lpDPO-DE4PUYxhVvUUK-58" value="zip code" style="ellipse;whiteSpace=wrap;html=1;align=center;" parent="1" vertex="1">
          <mxGeometry x="9" y="423" width="100" height="40" as="geometry" />
        </mxCell>
        <mxCell id="4lpDPO-DE4PUYxhVvUUK-68" value="&lt;span style=&quot;text-decoration-line: underline;&quot;&gt;unique&lt;/span&gt;&lt;br&gt;&lt;span style=&quot;text-decoration-line: underline;&quot;&gt;order id&lt;/span&gt;" style="ellipse;whiteSpace=wrap;html=1;align=center;" parent="1" vertex="1">
          <mxGeometry x="30" y="770" width="100" height="40" as="geometry" />
        </mxCell>
        <mxCell id="4lpDPO-DE4PUYxhVvUUK-74" value="" style="endArrow=none;html=1;rounded=0;entryX=0;entryY=1;entryDx=0;entryDy=0;exitX=0.5;exitY=0;exitDx=0;exitDy=0;" parent="1" source="4lpDPO-DE4PUYxhVvUUK-68" target="9BI1GUhbHRY5c_mxrUdc-27" edge="1">
          <mxGeometry relative="1" as="geometry">
            <mxPoint x="399" y="743" as="sourcePoint" />
            <mxPoint x="167" y="750" as="targetPoint" />
          </mxGeometry>
        </mxCell>
        <mxCell id="4lpDPO-DE4PUYxhVvUUK-75" value="" style="endArrow=none;html=1;rounded=0;exitX=0.5;exitY=0;exitDx=0;exitDy=0;entryX=0.25;entryY=1;entryDx=0;entryDy=0;" parent="1" target="9BI1GUhbHRY5c_mxrUdc-27" edge="1" source="4lpDPO-DE4PUYxhVvUUK-109">
          <mxGeometry relative="1" as="geometry">
            <mxPoint x="574" y="833" as="sourcePoint" />
            <mxPoint x="180" y="760" as="targetPoint" />
          </mxGeometry>
        </mxCell>
        <mxCell id="4lpDPO-DE4PUYxhVvUUK-76" value="" style="endArrow=none;html=1;rounded=0;exitX=0.5;exitY=0;exitDx=0;exitDy=0;entryX=0.5;entryY=1;entryDx=0;entryDy=0;" parent="1" source="4lpDPO-DE4PUYxhVvUUK-110" target="9BI1GUhbHRY5c_mxrUdc-27" edge="1">
          <mxGeometry relative="1" as="geometry">
            <mxPoint x="694" y="833" as="sourcePoint" />
            <mxPoint x="209" y="760" as="targetPoint" />
          </mxGeometry>
        </mxCell>
        <mxCell id="4lpDPO-DE4PUYxhVvUUK-77" value="" style="endArrow=none;html=1;rounded=0;entryX=0.5;entryY=0;entryDx=0;entryDy=0;exitX=0.75;exitY=1;exitDx=0;exitDy=0;" parent="1" source="9BI1GUhbHRY5c_mxrUdc-27" target="4lpDPO-DE4PUYxhVvUUK-111" edge="1">
          <mxGeometry relative="1" as="geometry">
            <mxPoint x="250" y="760" as="sourcePoint" />
            <mxPoint x="771" y="783" as="targetPoint" />
          </mxGeometry>
        </mxCell>
        <mxCell id="4lpDPO-DE4PUYxhVvUUK-81" value="" style="shape=link;html=1;rounded=0;exitX=0.5;exitY=1;exitDx=0;exitDy=0;entryX=0.335;entryY=-0.022;entryDx=0;entryDy=0;entryPerimeter=0;" parent="1" source="9BI1GUhbHRY5c_mxrUdc-31" edge="1" target="9BI1GUhbHRY5c_mxrUdc-27">
          <mxGeometry relative="1" as="geometry">
            <mxPoint x="192" y="631" as="sourcePoint" />
            <mxPoint x="192" y="710" as="targetPoint" />
          </mxGeometry>
        </mxCell>
        <mxCell id="9BI1GUhbHRY5c_mxrUdc-16" value="M" style="edgeLabel;html=1;align=center;verticalAlign=middle;resizable=0;points=[];" vertex="1" connectable="0" parent="4lpDPO-DE4PUYxhVvUUK-81">
          <mxGeometry x="-0.2417" y="3" relative="1" as="geometry">
            <mxPoint x="-3" as="offset" />
          </mxGeometry>
        </mxCell>
        <mxCell id="4lpDPO-DE4PUYxhVvUUK-88" value="" style="shape=link;html=1;rounded=0;exitX=0;exitY=0.5;exitDx=0;exitDy=0;entryX=0.948;entryY=0.519;entryDx=0;entryDy=0;entryPerimeter=0;" parent="1" source="9BI1GUhbHRY5c_mxrUdc-28" target="9BI1GUhbHRY5c_mxrUdc-32" edge="1">
          <mxGeometry relative="1" as="geometry">
            <mxPoint x="557" y="730" as="sourcePoint" />
            <mxPoint x="450" y="730" as="targetPoint" />
          </mxGeometry>
        </mxCell>
        <mxCell id="9BI1GUhbHRY5c_mxrUdc-26" value="M" style="edgeLabel;html=1;align=center;verticalAlign=middle;resizable=0;points=[];" vertex="1" connectable="0" parent="4lpDPO-DE4PUYxhVvUUK-88">
          <mxGeometry x="0.2659" y="-1" relative="1" as="geometry">
            <mxPoint as="offset" />
          </mxGeometry>
        </mxCell>
        <mxCell id="4lpDPO-DE4PUYxhVvUUK-103" value="" style="endArrow=none;html=1;rounded=0;exitX=0.5;exitY=1;exitDx=0;exitDy=0;entryX=0.5;entryY=0;entryDx=0;entryDy=0;" parent="1" source="9BI1GUhbHRY5c_mxrUdc-7" target="9BI1GUhbHRY5c_mxrUdc-30" edge="1">
          <mxGeometry relative="1" as="geometry">
            <mxPoint x="369" y="606" as="sourcePoint" />
            <mxPoint x="319" y="571" as="targetPoint" />
          </mxGeometry>
        </mxCell>
        <mxCell id="4lpDPO-DE4PUYxhVvUUK-104" value="1" style="resizable=0;html=1;align=right;verticalAlign=bottom;" parent="4lpDPO-DE4PUYxhVvUUK-103" connectable="0" vertex="1">
          <mxGeometry x="1" relative="1" as="geometry">
            <mxPoint x="-3" y="-7" as="offset" />
          </mxGeometry>
        </mxCell>
        <mxCell id="4lpDPO-DE4PUYxhVvUUK-105" value="" style="shape=link;html=1;rounded=0;endArrow=none;endFill=0;entryX=0.567;entryY=-0.007;entryDx=0;entryDy=0;exitX=0.5;exitY=1;exitDx=0;exitDy=0;entryPerimeter=0;" parent="1" source="9BI1GUhbHRY5c_mxrUdc-30" target="9BI1GUhbHRY5c_mxrUdc-27" edge="1">
          <mxGeometry relative="1" as="geometry">
            <mxPoint x="319" y="631" as="sourcePoint" />
            <mxPoint x="217" y="710" as="targetPoint" />
            <Array as="points" />
          </mxGeometry>
        </mxCell>
        <mxCell id="9BI1GUhbHRY5c_mxrUdc-18" value="M" style="edgeLabel;html=1;align=center;verticalAlign=middle;resizable=0;points=[];" vertex="1" connectable="0" parent="4lpDPO-DE4PUYxhVvUUK-105">
          <mxGeometry x="0.0478" y="-1" relative="1" as="geometry">
            <mxPoint as="offset" />
          </mxGeometry>
        </mxCell>
        <mxCell id="4lpDPO-DE4PUYxhVvUUK-107" value="quantity of stock" style="ellipse;whiteSpace=wrap;html=1;align=center;" parent="1" vertex="1">
          <mxGeometry x="391" y="770" width="100" height="40" as="geometry" />
        </mxCell>
        <mxCell id="4lpDPO-DE4PUYxhVvUUK-109" value="date of&lt;br&gt;receipt" style="ellipse;whiteSpace=wrap;html=1;align=center;" parent="1" vertex="1">
          <mxGeometry x="80" y="820" width="100" height="40" as="geometry" />
        </mxCell>
        <mxCell id="4lpDPO-DE4PUYxhVvUUK-110" value="actual ship date" style="ellipse;whiteSpace=wrap;html=1;align=center;" parent="1" vertex="1">
          <mxGeometry x="179" y="810" width="100" height="40" as="geometry" />
        </mxCell>
        <mxCell id="4lpDPO-DE4PUYxhVvUUK-111" value="expected ship&lt;br&gt;date" style="ellipse;whiteSpace=wrap;html=1;align=center;" parent="1" vertex="1">
          <mxGeometry x="269" y="780" width="100" height="40" as="geometry" />
        </mxCell>
        <mxCell id="4lpDPO-DE4PUYxhVvUUK-112" value="" style="endArrow=none;html=1;rounded=0;entryX=0.25;entryY=1;entryDx=0;entryDy=0;exitX=1;exitY=0.5;exitDx=0;exitDy=0;" parent="1" source="4lpDPO-DE4PUYxhVvUUK-107" target="9BI1GUhbHRY5c_mxrUdc-28" edge="1">
          <mxGeometry relative="1" as="geometry">
            <mxPoint x="130" y="736" as="sourcePoint" />
            <mxPoint x="607" y="750" as="targetPoint" />
          </mxGeometry>
        </mxCell>
        <mxCell id="4lpDPO-DE4PUYxhVvUUK-113" value="" style="endArrow=none;html=1;rounded=0;entryX=0.419;entryY=1.051;entryDx=0;entryDy=0;exitX=1;exitY=0;exitDx=0;exitDy=0;entryPerimeter=0;" parent="1" source="4lpDPO-DE4PUYxhVvUUK-38" target="9BI1GUhbHRY5c_mxrUdc-28" edge="1">
          <mxGeometry relative="1" as="geometry">
            <mxPoint x="141.9999999999984" y="712" as="sourcePoint" />
            <mxPoint x="607" y="750" as="targetPoint" />
          </mxGeometry>
        </mxCell>
        <mxCell id="4lpDPO-DE4PUYxhVvUUK-114" value="" style="endArrow=none;html=1;rounded=0;entryX=0.564;entryY=1.051;entryDx=0;entryDy=0;exitX=0.5;exitY=0;exitDx=0;exitDy=0;entryPerimeter=0;" parent="1" source="4lpDPO-DE4PUYxhVvUUK-39" target="9BI1GUhbHRY5c_mxrUdc-28" edge="1">
          <mxGeometry relative="1" as="geometry">
            <mxPoint x="151.9999999999984" y="722" as="sourcePoint" />
            <mxPoint x="607" y="750" as="targetPoint" />
          </mxGeometry>
        </mxCell>
        <mxCell id="4lpDPO-DE4PUYxhVvUUK-115" value="" style="endArrow=none;html=1;rounded=0;entryX=0.75;entryY=1;entryDx=0;entryDy=0;exitX=0.5;exitY=0;exitDx=0;exitDy=0;" parent="1" source="4lpDPO-DE4PUYxhVvUUK-40" target="9BI1GUhbHRY5c_mxrUdc-28" edge="1">
          <mxGeometry relative="1" as="geometry">
            <mxPoint x="161.9999999999984" y="732" as="sourcePoint" />
            <mxPoint x="607" y="750" as="targetPoint" />
          </mxGeometry>
        </mxCell>
        <mxCell id="9BI1GUhbHRY5c_mxrUdc-1" style="edgeStyle=orthogonalEdgeStyle;rounded=0;orthogonalLoop=1;jettySize=auto;html=1;exitX=0.5;exitY=0;exitDx=0;exitDy=0;endArrow=none;endFill=0;entryX=0.5;entryY=1;entryDx=0;entryDy=0;" edge="1" parent="1" source="4lpDPO-DE4PUYxhVvUUK-15" target="9BI1GUhbHRY5c_mxrUdc-2">
          <mxGeometry relative="1" as="geometry">
            <mxPoint x="274.9999999999999" y="423" as="sourcePoint" />
            <mxPoint x="240" y="340" as="targetPoint" />
            <Array as="points">
              <mxPoint x="192" y="370" />
              <mxPoint x="130" y="370" />
            </Array>
          </mxGeometry>
        </mxCell>
        <mxCell id="9BI1GUhbHRY5c_mxrUdc-2" value="last name" style="ellipse;whiteSpace=wrap;html=1;align=center;" vertex="1" parent="1">
          <mxGeometry x="80" y="320" width="100" height="40" as="geometry" />
        </mxCell>
        <mxCell id="9BI1GUhbHRY5c_mxrUdc-4" style="edgeStyle=orthogonalEdgeStyle;rounded=0;orthogonalLoop=1;jettySize=auto;html=1;exitX=0.75;exitY=0;exitDx=0;exitDy=0;entryX=0.5;entryY=1;entryDx=0;entryDy=0;endArrow=none;endFill=0;" edge="1" parent="1" source="9BI1GUhbHRY5c_mxrUdc-7" target="9BI1GUhbHRY5c_mxrUdc-8">
          <mxGeometry relative="1" as="geometry">
            <Array as="points">
              <mxPoint x="344" y="463" />
              <mxPoint x="470" y="463" />
            </Array>
          </mxGeometry>
        </mxCell>
        <mxCell id="9BI1GUhbHRY5c_mxrUdc-5" style="edgeStyle=orthogonalEdgeStyle;rounded=0;orthogonalLoop=1;jettySize=auto;html=1;exitX=0.25;exitY=0;exitDx=0;exitDy=0;entryX=0.5;entryY=1;entryDx=0;entryDy=0;endArrow=none;endFill=0;" edge="1" parent="1" source="9BI1GUhbHRY5c_mxrUdc-7" target="9BI1GUhbHRY5c_mxrUdc-9">
          <mxGeometry relative="1" as="geometry">
            <Array as="points">
              <mxPoint x="294" y="440" />
              <mxPoint x="329" y="440" />
            </Array>
          </mxGeometry>
        </mxCell>
        <mxCell id="9BI1GUhbHRY5c_mxrUdc-6" style="edgeStyle=orthogonalEdgeStyle;rounded=0;orthogonalLoop=1;jettySize=auto;html=1;exitX=0;exitY=0.5;exitDx=0;exitDy=0;endArrow=none;endFill=0;entryX=0.5;entryY=1;entryDx=0;entryDy=0;" edge="1" parent="1" source="9BI1GUhbHRY5c_mxrUdc-7" target="9BI1GUhbHRY5c_mxrUdc-10">
          <mxGeometry relative="1" as="geometry">
            <mxPoint x="361" y="483" as="targetPoint" />
            <Array as="points">
              <mxPoint x="269" y="483" />
              <mxPoint x="540" y="483" />
            </Array>
          </mxGeometry>
        </mxCell>
        <mxCell id="9BI1GUhbHRY5c_mxrUdc-7" value="Employee" style="whiteSpace=wrap;html=1;align=center;" vertex="1" parent="1">
          <mxGeometry x="269" y="470" width="100" height="40" as="geometry" />
        </mxCell>
        <mxCell id="9BI1GUhbHRY5c_mxrUdc-8" value="unique &lt;br&gt;employee id" style="ellipse;whiteSpace=wrap;html=1;align=center;fontStyle=4;" vertex="1" parent="1">
          <mxGeometry x="420" y="376" width="100" height="40" as="geometry" />
        </mxCell>
        <mxCell id="9BI1GUhbHRY5c_mxrUdc-9" value="first name" style="ellipse;whiteSpace=wrap;html=1;align=center;" vertex="1" parent="1">
          <mxGeometry x="279" y="376" width="100" height="40" as="geometry" />
        </mxCell>
        <mxCell id="9BI1GUhbHRY5c_mxrUdc-10" value="zip code" style="ellipse;whiteSpace=wrap;html=1;align=center;" vertex="1" parent="1">
          <mxGeometry x="490" y="416" width="100" height="40" as="geometry" />
        </mxCell>
        <mxCell id="9BI1GUhbHRY5c_mxrUdc-11" style="edgeStyle=orthogonalEdgeStyle;rounded=0;orthogonalLoop=1;jettySize=auto;html=1;exitX=0.5;exitY=0;exitDx=0;exitDy=0;endArrow=none;endFill=0;entryX=0.5;entryY=1;entryDx=0;entryDy=0;" edge="1" parent="1" source="9BI1GUhbHRY5c_mxrUdc-7" target="9BI1GUhbHRY5c_mxrUdc-12">
          <mxGeometry relative="1" as="geometry">
            <mxPoint x="576.9999999999999" y="430" as="sourcePoint" />
            <mxPoint x="542" y="347" as="targetPoint" />
            <Array as="points">
              <mxPoint x="319" y="450" />
              <mxPoint x="400" y="450" />
              <mxPoint x="400" y="383" />
            </Array>
          </mxGeometry>
        </mxCell>
        <mxCell id="9BI1GUhbHRY5c_mxrUdc-12" value="last name" style="ellipse;whiteSpace=wrap;html=1;align=center;" vertex="1" parent="1">
          <mxGeometry x="352" y="343" width="100" height="40" as="geometry" />
        </mxCell>
        <mxCell id="9BI1GUhbHRY5c_mxrUdc-23" value="" style="shape=link;html=1;rounded=0;exitX=1;exitY=0.5;exitDx=0;exitDy=0;entryX=0;entryY=0.5;entryDx=0;entryDy=0;" edge="1" parent="1" source="9BI1GUhbHRY5c_mxrUdc-27" target="9BI1GUhbHRY5c_mxrUdc-32">
          <mxGeometry relative="1" as="geometry">
            <mxPoint x="242" y="730" as="sourcePoint" />
            <mxPoint x="330.0000000000001" y="730" as="targetPoint" />
          </mxGeometry>
        </mxCell>
        <mxCell id="9BI1GUhbHRY5c_mxrUdc-25" value="1" style="edgeLabel;html=1;align=center;verticalAlign=middle;resizable=0;points=[];" vertex="1" connectable="0" parent="9BI1GUhbHRY5c_mxrUdc-23">
          <mxGeometry x="0.2348" relative="1" as="geometry">
            <mxPoint as="offset" />
          </mxGeometry>
        </mxCell>
        <mxCell id="9BI1GUhbHRY5c_mxrUdc-27" value="order" style="whiteSpace=wrap;html=1;align=center;" vertex="1" parent="1">
          <mxGeometry x="159" y="710" width="100" height="40" as="geometry" />
        </mxCell>
        <mxCell id="9BI1GUhbHRY5c_mxrUdc-28" value="part" style="whiteSpace=wrap;html=1;align=center;" vertex="1" parent="1">
          <mxGeometry x="550" y="710" width="100" height="40" as="geometry" />
        </mxCell>
        <mxCell id="9BI1GUhbHRY5c_mxrUdc-30" value="Takes" style="shape=rhombus;perimeter=rhombusPerimeter;whiteSpace=wrap;html=1;align=center;" vertex="1" parent="1">
          <mxGeometry x="259" y="571" width="120" height="60" as="geometry" />
        </mxCell>
        <mxCell id="9BI1GUhbHRY5c_mxrUdc-31" value="places" style="shape=rhombus;perimeter=rhombusPerimeter;whiteSpace=wrap;html=1;align=center;" vertex="1" parent="1">
          <mxGeometry x="132" y="571" width="120" height="60" as="geometry" />
        </mxCell>
        <mxCell id="9BI1GUhbHRY5c_mxrUdc-32" value="contains" style="shape=rhombus;perimeter=rhombusPerimeter;whiteSpace=wrap;html=1;align=center;" vertex="1" parent="1">
          <mxGeometry x="332" y="700" width="120" height="60" as="geometry" />
        </mxCell>
      </root>
    </mxGraphModel>
  </diagram>
</mxfile>
